# xmcd CD database file
#
# Track frame offsets:
#	150
#	10375
#	23245
#	39762
#	57720
#	74797
#	91055
#	114635
#	127705
#	143205
#	165230
#	180822
#	197437
#
# Disc length: 2838 seconds
#
# Revision: 0
# Processed by: cddbd v1.5.2PL0 Copyright (c) Steve Scherf et al.
# Submitted via: CDex 1.51
#
DISCID=a10b140d
DTITLE=Coda - Ingratiating
DYEAR=2009
DGENRE=Jazz
TTITLE0=On the Move
TTITLE1=The Dock of the Bay
TTITLE2=Autumn Leaves
TTITLE3=One More Time
TTITLE4=Latin Lilt
TTITLE5=Spinning Wheel
TTITLE6=Misty
TTITLE7=Fly Me to the Moon
TTITLE8=The Way You Look Tonight
TTITLE9=The Shadow of Your Smile
TTITLE10=Beyond the Sea
TTITLE11=Wonderland by Night
TTITLE12=Goodbye, My Love
EXTD=YEAR: 2009
EXTT0=
EXTT1=
EXTT2=
EXTT3=
EXTT4=
EXTT5=
EXTT6=
EXTT7=
EXTT8=
EXTT9=
EXTT10=
EXTT11=
EXTT12=
PLAYORDER=
